<?xml version="1.0" standalone="no"?>
<!DOCTYPE svg PUBLIC "-//W3C//DTD SVG 20010904//EN"
 "http://www.w3.org/TR/2001/REC-SVG-20010904/DTD/svg10.dtd">
<svg version="1.0" xmlns="http://www.w3.org/2000/svg"
 viewBox="0 0 1280.000000 1280.000000"
 preserveAspectRatio="xMidYMid meet">
<metadata>
Created by potrace 1.15, written by Peter Selinger 2001-2017
</metadata>
<g transform="translate(0.000000,1280.000000) scale(0.100000,-0.100000)"
fill="#000000" stroke="none">
<path d="M6095 12794 c-27 -2 -115 -8 -195 -14 -1261 -93 -2504 -584 -3500
-1384 -454 -365 -875 -810 -1215 -1287 -1086 -1522 -1449 -3456 -991 -5277
315 -1249 1012 -2388 1984 -3240 1359 -1192 3139 -1752 4932 -1552 1302 146
2508 677 3505 1544 248 216 581 565 801 842 1539 1932 1819 4616 713 6826
-783 1566 -2159 2738 -3824 3259 -428 134 -858 219 -1340 265 -150 14 -756 27
-870 18z"/>
</g>
</svg>
