<?xml version="1.0" encoding="utf-8"?>
<!-- Svg Vector Icons : http://www.onlinewebfonts.com/icon -->
<!DOCTYPE svg PUBLIC "-//W3C//DTD SVG 1.1//EN" "http://www.w3.org/Graphics/SVG/1.1/DTD/svg11.dtd">
<svg version="1.1" xmlns="http://www.w3.org/2000/svg" xmlns:xlink="http://www.w3.org/1999/xlink" x="0px" y="0px" viewBox="0 0 1000 1000" enable-background="new 0 0 1000 1000" xml:space="preserve">
<metadata> Svg Vector Icons : http://www.onlinewebfonts.com/icon </metadata>
<g><g><path d="M846.9,127c-39.8-21.1-85.3-33.2-133.8-33.2c-85.5,0-162.3,37.5-212.9,96.3c-51-58.8-127.6-96.3-213.2-96.3c-48.5,0-94.1,12.1-133.8,33.2C67.8,172.2,10,259.4,10,360c0,28.8,4.9,56.2,13.7,82.1c47.4,205.2,350.7,464.1,476.5,464.1c122.3,0,428.6-258.9,476.1-464.1c8.8-25.9,13.7-53.3,13.7-82.1C990,259.4,932.2,172.2,846.9,127z M900.9,418.7c-2.8,7.7-9.9,12.4-17.7,12.4c-2,0-4,0-6-0.7c-9.9-3.3-15-13.9-11.7-23.8c5.3-15.6,8-31.3,8-46.7c0-55.8-31.7-107.1-82.5-133.8c-24.3-13.1-50.3-19.7-77.9-19.7c-10.4,0-18.6-8-18.6-18.6c0-10.2,8.2-18.5,18.6-18.5c33.5,0,65.6,8,95.3,23.7c63.1,33.5,102.3,97.3,102.3,166.9C910.7,379.7,907.5,399.4,900.9,418.7z"/></g><g></g><g></g><g></g><g></g><g></g><g></g><g></g><g></g><g></g><g></g><g></g><g></g><g></g><g></g><g></g></g>
</svg>