<?xml version="1.0" standalone="no"?>
<!DOCTYPE svg PUBLIC "-//W3C//DTD SVG 20010904//EN"
 "http://www.w3.org/TR/2001/REC-SVG-20010904/DTD/svg10.dtd">
<svg version="1.0" xmlns="http://www.w3.org/2000/svg"
 viewBox="0 0 1280.000000 923.000000"
 preserveAspectRatio="xMidYMid meet">
<metadata>
Created by potrace 1.15, written by Peter Selinger 2001-2017
</metadata>
<g transform="translate(0.000000,923.000000) scale(0.100000,-0.100000)"
fill="#000000" stroke="none">
<path d="M2106 9219 c-151 -25 -283 -95 -401 -214 -116 -115 -141 -164 -243
-470 -727 -2168 -1265 -3773 -1350 -4025 l-107 -315 0 -800 0 -800 23 -64 c59
-164 183 -291 342 -351 30 -11 663 -150 1405 -309 743 -160 2063 -443 2935
-630 872 -187 2172 -466 2890 -620 718 -154 1654 -355 2080 -447 466 -100 807
-168 856 -171 300 -20 614 183 722 467 14 36 511 1519 1163 3470 243 726 362
1096 367 1140 4 36 8 400 7 810 0 677 -2 749 -17 793 -54 152 -160 276 -290
340 -82 41 -106 46 -948 227 -74 16 -200 43 -280 60 -80 17 -206 44 -280 60
-74 16 -200 43 -280 60 -80 17 -208 45 -285 61 -77 17 -201 43 -275 59 -148
32 -338 72 -557 119 -79 17 -207 45 -285 61 -79 17 -161 35 -183 40 -22 5
-103 23 -180 39 -77 16 -204 44 -282 60 -182 39 -385 83 -560 120 -76 17 -202
44 -280 60 -79 17 -205 44 -280 60 -76 17 -203 44 -283 61 -80 17 -207 44
-282 61 -332 71 -424 90 -603 129 -189 41 -348 75 -605 130 -74 16 -199 43
-277 59 -182 39 -385 83 -560 120 -76 17 -203 44 -283 61 -80 17 -206 44 -280
60 -74 16 -198 42 -275 59 -77 17 -225 48 -330 71 -104 22 -251 54 -325 70
-74 16 -198 42 -275 59 -362 77 -428 92 -540 116 -306 67 -385 75 -509 54z"/>
</g>
</svg>
